<svg width="30" height="30" viewBox="0 0 30 30" fill="none" xmlns="http://www.w3.org/2000/svg">
<g id="Icon/16px/Facebook">
<path id="Vector" d="M16.589 7.15864C16.589 7.46567 16.589 8.4664 16.589 9.88811H21.4771L20.9471 14.2456H16.589C16.589 20.9656 16.589 29.9707 16.589 29.9707H10.8043C10.8043 29.9707 10.8043 21.0847 10.8043 14.2456H7.79004V9.88811H10.8043C10.8043 8.16007 10.8043 6.9313 10.8043 6.58917C10.8043 4.95909 10.6815 4.18565 11.3741 2.92249C12.0671 1.65938 14.0218 -0.0101862 17.4026 0.0300091C20.7842 0.0716692 22.2096 0.396982 22.2096 0.396982L21.4771 5.04095C21.4771 5.04095 19.3178 4.47077 18.2579 4.67397C17.1994 4.87724 16.589 5.52927 16.589 7.15864Z" fill="#EBF227"/>
</g>
</svg>
