<svg width="30" height="30" viewBox="0 0 30 30" fill="none" xmlns="http://www.w3.org/2000/svg">
<g id="Icon/16px/Tiktok">
<path id="Vector" d="M22.2813 6.29626C21.045 4.85896 20.3973 3.00196 20.4489 1.11136L15.8292 0.999756C15.8292 0.999756 15.8292 1.19686 15.8292 1.46266V19.988C15.8937 25.8488 6.63393 25.7066 7.36653 19.2284C7.81443 16.6526 10.5822 15.0674 13.0416 15.9635V11.2499C7.68723 10.3175 2.61303 14.5793 2.66643 20.0087C3.13443 31.7837 20.0232 31.7852 20.4918 20.0087C20.3739 19.5872 20.4399 11.7404 20.4231 11.0786C22.5237 12.3857 24.9678 13.0391 27.4431 12.9554V8.08726C25.1547 8.08726 23.4084 7.47886 22.2813 6.29626Z" fill="#EBF227"/>
</g>
</svg>
