<svg width="30" height="30" viewBox="0 0 30 30" fill="none" xmlns="http://www.w3.org/2000/svg">
<g id="Icon/16px/Twitter">
<path id="Twitter" fill-rule="evenodd" clip-rule="evenodd" d="M0 5.35491C1.10231 5.84725 2.28913 6.18019 3.53407 6.32895C2.26272 5.56389 1.28721 4.35077 0.827618 2.90565C2.01797 3.61404 3.33333 4.12939 4.7385 4.40566C5.85842 3.20316 7.45906 2.45227 9.2305 2.45227C12.6272 2.45227 15.383 5.22385 15.383 8.64185C15.383 9.12709 15.3302 9.59818 15.2245 10.0516C20.3399 9.79299 24.8741 7.33132 27.9116 3.58215C28.4416 4.49952 28.7445 5.56389 28.7445 6.69731C28.7445 8.84374 27.658 10.7387 26.0063 11.8491C27.0136 11.819 27.9644 11.5374 28.7956 11.077V11.1531C28.7956 14.1531 26.6737 16.6555 23.8563 17.2222C24.3723 17.3675 24.9164 17.4401 25.4781 17.4401C25.8743 17.4401 26.2617 17.4029 26.6367 17.3303C25.8531 19.7884 23.5816 21.5789 20.8875 21.6267C22.9935 23.2879 25.6489 24.2778 28.5314 24.2778C29.028 24.2778 29.5193 24.2495 30 24.1928C27.2759 25.9461 24.0394 26.9715 20.5652 26.9715C9.24283 26.9715 3.05336 17.541 3.05336 9.36087C3.05336 9.09168 3.05865 8.82249 3.06921 8.55861C1.86653 7.68552 0.822329 6.59637 0 5.35491Z" fill="#EBF227"/>
</g>
</svg>
