<svg width="30" height="30" viewBox="0 0 30 30" fill="none" xmlns="http://www.w3.org/2000/svg">
<g id="Icon/16px/Instagram">
<path id="Vector" d="M15 27.5C12.3197 27.5 10.3909 27.4987 8.88712 27.3528C7.40057 27.2087 6.44962 26.9318 5.69072 26.4549C4.82334 25.91 4.0899 25.1766 3.54489 24.3093C3.06818 23.5504 2.7911 22.5994 2.64716 21.1129C2.50133 19.6091 2.5 17.6803 2.5 15C2.5 12.3197 2.50133 10.3909 2.64716 8.88712C2.7911 7.40057 3.06818 6.44962 3.54489 5.69072C4.08988 4.82332 4.82332 4.08988 5.69072 3.54489C6.44962 3.06818 7.40057 2.7911 8.88712 2.64716C10.3907 2.50133 12.3195 2.5 15 2.5C17.6803 2.5 19.6091 2.50133 21.1129 2.64716C22.5994 2.7911 23.5504 3.06818 24.3093 3.54489C25.1766 4.0899 25.91 4.82334 26.4549 5.69072C26.9318 6.44962 27.2087 7.40057 27.3528 8.88712C27.4987 10.3909 27.5 12.3197 27.5 15C27.5 17.6803 27.4987 19.6091 27.3528 21.1129C27.2087 22.5994 26.9318 23.5504 26.4549 24.3093C25.91 25.1766 25.1766 25.91 24.3093 26.4549C23.5504 26.9318 22.5994 27.2087 21.1129 27.3528C19.6091 27.4987 17.6803 27.5 15 27.5Z" fill="#EBF227" stroke="#EBF227" stroke-width="2"/>
<path id="Vector_2" d="M15 21.25C17.7614 21.25 20 19.0114 20 16.25C20 13.4886 17.7614 11.25 15 11.25C12.2386 11.25 10 13.4886 10 16.25C10 19.0114 12.2386 21.25 15 21.25Z" fill="#EBF227" stroke="#031240" stroke-width="2"/>
<path id="Vector_3" d="M21.0938 10.3125C21.8704 10.3125 22.5 9.6829 22.5 8.90625C22.5 8.1296 21.8704 7.5 21.0938 7.5C20.3171 7.5 19.6875 8.1296 19.6875 8.90625C19.6875 9.6829 20.3171 10.3125 21.0938 10.3125Z" fill="#031240"/>
</g>
</svg>
